<svg width="419" height="768" viewBox="0 0 419 768" fill="none" xmlns="http://www.w3.org/2000/svg">
<g id="Group 2">
<path id="Path Copy" opacity="0.0991676" d="M-77.9591 771.353L-526.97 505.729C-541.265 497.683 -553.518 484.501 -539.59 475.852L-88.9815 215.89C-82.2267 211.696 -71.9636 208.944 -65.0779 212.954L406.187 486.781C420.482 495.089 423.048 518.231 408.805 526.618L-18.7891 770.933C-37.0507 781.537 -59.5494 781.697 -77.9591 771.353Z" fill="#6862E6"/>
<path id="Path Copy 2" opacity="0.0991676" d="M-77.9591 395.353L-526.97 129.729C-541.265 121.683 -553.518 108.501 -539.59 99.8518L-88.9815 -160.11C-82.2267 -164.304 -71.9636 -167.056 -65.0779 -163.046L406.187 110.781C420.482 119.089 423.048 142.231 408.805 150.618L-18.7891 394.933C-37.0507 405.537 -59.5494 405.697 -77.9591 395.353Z" stroke="#1E1F36"/>
<path id="Path Copy 3" opacity="0.0991676" d="M-77.9591 470.353L-526.97 204.729C-541.265 196.683 -553.518 183.501 -539.59 174.852L-88.9815 -85.1103C-82.2267 -89.3037 -71.9636 -92.0556 -65.0779 -88.0457L406.187 185.781C420.482 194.089 423.048 217.231 408.805 225.618L-18.7891 469.933C-37.0507 480.537 -59.5494 480.697 -77.9591 470.353Z" stroke="#1E1F36"/>
</g>
</svg>
