<svg width="1016" height="509" viewBox="0 0 1016 509" fill="none" xmlns="http://www.w3.org/2000/svg">
<mask id="mask0_506_2" style="mask-type:alpha" maskUnits="userSpaceOnUse" x="96" y="0" width="920" height="509">
<rect x="96" width="920" height="509" rx="23" fill="white"/>
</mask>
<g mask="url(#mask0_506_2)">
<path d="M241.018 425.203L21.3127 295.211C14.318 291.273 8.32254 284.822 15.1379 280.589L235.625 153.367C238.93 151.315 243.952 149.968 247.321 151.931L477.916 285.938C484.91 290.003 486.166 301.329 479.197 305.433L269.971 424.998C261.035 430.187 250.026 430.265 241.018 425.203Z" fill="#5B36A0"/>
<path d="M241.018 419.203L21.3127 289.211C14.318 285.273 8.32254 278.822 15.1379 274.589L235.625 147.367C238.93 145.315 243.952 143.968 247.321 145.931L477.916 279.938C484.91 284.003 486.166 295.329 479.197 299.433L269.971 418.998C261.035 424.187 250.026 424.265 241.018 419.203Z" fill="#6862E6"/>
<g style="mix-blend-mode:multiply" opacity="0.25">
<path d="M259.133 247.693L215.781 272.46C215.781 272.46 282.564 313.26 296.22 319.006L321.188 283.093" fill="url(#paint0_linear_506_2)"/>
</g>
<g style="mix-blend-mode:multiply" opacity="0.25">
<path d="M244.157 366.513L200.792 341.798L157.428 366.565C157.428 366.565 180.013 380.366 201.599 393.038C215.307 383.328 229.027 373.517 244.157 366.513Z" fill="url(#paint1_linear_506_2)"/>
</g>
<g style="mix-blend-mode:multiply" opacity="0.46">
<path d="M150.728 213.883L123.223 229.595C123.223 229.595 125.554 243.999 139.211 249.745L175.222 226.658" fill="url(#paint2_linear_506_2)"/>
</g>
<ellipse cx="164.192" cy="217.898" rx="16.59" ry="11.6974" fill="#68E1FD"/>
<ellipse cx="164.179" cy="210.997" rx="12.4265" ry="5.09196" fill="#974C26"/>
<path fill-rule="evenodd" clip-rule="evenodd" d="M163.474 195.619C163.654 197.915 163.73 200.21 163.73 202.506C163.718 205.379 163.577 208.252 163.269 211.113C162.283 209.74 161.309 208.304 160.284 206.688C158.965 204.623 157.735 202.506 156.608 200.339C155.56 198.411 154.664 196.404 153.93 194.336C153.114 192.09 152.459 189.788 151.97 187.448C151.842 186.884 151.727 186.217 151.624 185.602V185.383V184.845C151.522 183.639 151.419 182.357 151.419 181.074C151.362 176.712 152.204 172.385 153.892 168.363C158.377 174.876 161.401 182.284 162.757 190.078C162.842 190.54 162.923 191.006 163 191.476C163 191.386 163.18 192.322 163.18 192.669L163.308 193.836C163.368 194.426 163.423 195.02 163.474 195.619ZM157.21 176.687C157.21 176.687 157.21 176.687 157.21 176.687H157.197C157.201 176.687 157.206 176.687 157.21 176.687ZM157.21 176.687C157.525 176.669 157.841 176.704 158.145 176.79C157.838 176.448 157.526 176.115 157.21 175.79C157.275 176.085 157.276 176.391 157.21 176.687Z" fill="#999A1C"/>
<path fill-rule="evenodd" clip-rule="evenodd" d="M171.494 198.338C170.405 200.428 169.278 202.34 167.997 204.276C166.446 206.7 164.73 209.035 163.026 211.305C162.911 209.625 162.911 207.88 162.911 205.969C162.911 203.52 163.013 201.083 163.244 198.646C163.402 196.456 163.732 194.281 164.23 192.143C164.753 189.809 165.443 187.516 166.293 185.281C166.523 184.691 166.767 184.114 167.01 183.537L167.01 183.537L167.074 183.331L167.33 182.857C167.907 181.741 168.522 180.638 169.188 179.573C171.502 175.868 174.554 172.68 178.155 170.21C178.416 178.124 176.96 186 173.889 193.297C173.71 193.716 173.527 194.144 173.339 194.58L172.839 195.683L172.314 196.747C172.049 197.278 171.776 197.808 171.494 198.338ZM176.887 178.239C176.801 178.529 176.652 178.796 176.452 179.022C176.702 179.154 176.93 179.322 177.131 179.522C177.062 179.112 176.981 178.684 176.887 178.239Z" fill="#999A1C"/>
<path fill-rule="evenodd" clip-rule="evenodd" d="M171.75 207.919C170.478 208.663 169.196 209.356 167.907 209.997C166.293 210.805 164.64 211.523 162.987 212.216C163.474 211.279 164.025 210.317 164.64 209.291C165.447 208.009 166.293 206.726 167.202 205.444C167.993 204.312 168.871 203.244 169.828 202.25C170.865 201.158 171.978 200.142 173.159 199.21L174.107 198.505L174.21 198.415L174.504 198.235C175.183 197.825 175.862 197.427 176.567 197.068C179.004 195.814 181.673 195.076 184.407 194.901C181.997 199.25 178.676 203.026 174.671 205.969L173.954 206.495L173.339 206.931L172.711 207.329L171.75 207.919ZM181.102 198.812C180.963 198.941 180.796 199.038 180.615 199.095V199.107C180.701 199.268 180.761 199.441 180.794 199.621C180.906 199.355 181.008 199.086 181.102 198.812Z" fill="#999A1C"/>
<path fill-rule="evenodd" clip-rule="evenodd" d="M163.474 195.619C163.654 197.915 163.73 200.21 163.73 202.506C163.718 205.379 163.577 208.252 163.269 211.113C162.283 209.74 161.309 208.304 160.284 206.688C158.965 204.623 157.735 202.506 156.608 200.339C155.56 198.411 154.664 196.404 153.93 194.336C153.114 192.09 152.459 189.788 151.97 187.448C151.842 186.884 151.727 186.217 151.624 185.602V185.383V184.845C151.522 183.639 151.419 182.357 151.419 181.074C151.362 176.712 152.204 172.385 153.892 168.363C158.377 174.876 161.401 182.284 162.757 190.078C162.842 190.54 162.923 191.006 163 191.476C163 191.386 163.18 192.322 163.18 192.669L163.308 193.836C163.368 194.426 163.423 195.02 163.474 195.619ZM157.21 176.687C157.21 176.687 157.21 176.687 157.21 176.687H157.197C157.201 176.687 157.206 176.687 157.21 176.687ZM157.21 176.687C157.525 176.669 157.841 176.704 158.145 176.79C157.838 176.448 157.526 176.115 157.21 175.79C157.275 176.085 157.276 176.391 157.21 176.687Z" fill="#999A1C"/>
<path fill-rule="evenodd" clip-rule="evenodd" d="M171.494 198.338C170.405 200.428 169.278 202.34 167.997 204.276C166.446 206.7 164.73 209.035 163.026 211.305C162.911 209.625 162.911 207.88 162.911 205.969C162.911 203.52 163.013 201.083 163.244 198.646C163.402 196.456 163.732 194.281 164.23 192.143C164.753 189.809 165.443 187.516 166.293 185.281C166.523 184.691 166.767 184.114 167.01 183.537L167.01 183.537L167.074 183.331L167.33 182.857C167.907 181.741 168.522 180.638 169.188 179.573C171.502 175.868 174.554 172.68 178.155 170.21C178.416 178.124 176.96 186 173.889 193.297C173.71 193.716 173.527 194.144 173.339 194.58L172.839 195.683L172.314 196.747C172.049 197.278 171.776 197.808 171.494 198.338ZM176.887 178.239C176.801 178.529 176.652 178.796 176.452 179.022C176.702 179.154 176.93 179.322 177.131 179.522C177.062 179.112 176.981 178.684 176.887 178.239Z" fill="#999A1C"/>
<path fill-rule="evenodd" clip-rule="evenodd" d="M171.75 207.919C170.478 208.663 169.196 209.356 167.907 209.997C166.293 210.805 164.64 211.523 162.987 212.216C163.474 211.279 164.025 210.317 164.64 209.291C165.447 208.009 166.293 206.726 167.202 205.444C167.993 204.312 168.871 203.244 169.828 202.25C170.865 201.158 171.978 200.142 173.159 199.21L174.107 198.505L174.21 198.415L174.504 198.235C175.183 197.825 175.862 197.427 176.567 197.068C179.004 195.814 181.673 195.076 184.407 194.901C181.997 199.25 178.676 203.026 174.671 205.969L173.954 206.495L173.339 206.931L172.711 207.329L171.75 207.919ZM181.102 198.812C180.963 198.941 180.796 199.038 180.615 199.095V199.107C180.701 199.268 180.761 199.441 180.794 199.621C180.906 199.355 181.008 199.086 181.102 198.812Z" fill="#999A1C"/>
<path d="M276.35 238.022L252.356 249.565C250.513 250.452 249.311 252.285 249.231 254.33C249.15 256.375 250.205 258.297 251.971 259.326L308.839 292.545C311.392 294.04 314.669 293.254 316.269 290.763L330.092 269.24" fill="#A1482D"/>
<path d="M406.854 182.344L215.525 71.9624C212.853 70.4244 209.566 70.4283 206.898 71.9726C204.23 73.517 202.587 76.3677 202.586 79.4529V194.285C202.586 196.851 203.953 199.222 206.173 200.505L410.146 318.39C411.578 319.221 413.345 319.222 414.778 318.394C416.211 317.565 417.093 316.033 417.09 314.375V200.018C417.084 192.717 413.18 185.976 406.854 182.344Z" fill="#F47B56"/>
<path d="M215.537 80.6457L401.089 187.525C405.122 189.85 407.608 194.154 407.61 198.812V284.888C407.607 286.564 406.714 288.113 405.265 288.953C403.816 289.793 402.031 289.798 400.577 288.967L211.348 180.304C209.907 179.477 209.017 177.941 209.017 176.277V84.4294C209.017 82.8741 209.844 81.4366 211.188 80.6567C212.532 79.8768 214.189 79.8726 215.537 80.6457Z" fill="white"/>
<ellipse cx="292.738" cy="238.465" rx="4.03558" ry="4.61719" transform="rotate(-10.9 292.738 238.465)" fill="#AB643C"/>
<path opacity="0.32" d="M265.41 197.427L351.639 249.296L394.235 224.503L318.126 180.151" fill="url(#paint3_linear_506_2)"/>
<path d="M371.97 187.102L278.746 130.193C277.73 129.604 276.474 129.615 275.468 130.22C274.461 130.825 273.862 131.93 273.903 133.104V165.529C273.896 166.722 274.513 167.832 275.53 168.453L368.742 224.157C369.739 224.724 370.962 224.717 371.952 224.138C372.942 223.559 373.549 222.496 373.546 221.348L374.033 191.117C374.106 189.507 373.321 187.979 371.97 187.102Z" fill="#E2AC00"/>
<path d="M349.667 203.789C353.01 208.47 358.89 209.779 362.785 206.726C366.679 203.674 367.128 197.402 363.784 192.733C360.44 188.064 354.56 186.743 350.666 189.796C346.771 192.848 346.323 199.107 349.667 203.789Z" fill="white"/>
<path d="M340.52 181.318L302.497 158.397C301.82 158.08 301.014 158.331 300.635 158.976C300.257 159.621 300.431 160.448 301.037 160.886L339.059 183.806C339.736 184.123 340.543 183.873 340.921 183.228C341.3 182.583 341.126 181.755 340.52 181.318V181.318Z" fill="#F2F2F2"/>
<path d="M338.957 190.629L286.548 159.039C285.885 158.807 285.152 159.084 284.808 159.697C284.464 160.31 284.609 161.081 285.151 161.527L337.496 193.131C338.173 193.448 338.98 193.197 339.358 192.552C339.737 191.907 339.563 191.08 338.957 190.642V190.629Z" fill="#F2F2F2"/>
<path d="M353.369 193.387L260.196 136.49C259.18 135.902 257.924 135.912 256.918 136.518C255.911 137.123 255.312 138.227 255.353 139.402V171.813C255.338 173.009 255.951 174.124 256.968 174.751L350.179 230.454C351.187 231.034 352.429 231.025 353.427 230.429C354.426 229.833 355.025 228.745 354.996 227.581L355.483 197.35C355.526 195.748 354.723 194.242 353.369 193.387V193.387Z" fill="#F47B56"/>
<path d="M331.065 210.074C334.409 214.755 340.289 216.064 344.184 213.011C348.078 209.958 348.526 203.686 345.183 199.018C341.839 194.349 335.959 193.028 332.065 196.08C328.17 199.133 327.722 205.392 331.065 210.074Z" fill="white"/>
<path d="M321.918 187.602L283.87 164.682C283.194 164.365 282.387 164.616 282.008 165.261C281.63 165.906 281.804 166.733 282.41 167.171L320.432 190.091C321.109 190.408 321.916 190.157 322.294 189.512C322.673 188.867 322.499 188.04 321.893 187.602H321.918Z" fill="#F2F2F2"/>
<path d="M320.343 196.978L267.946 165.336C267.27 165.019 266.463 165.27 266.084 165.915C265.706 166.56 265.88 167.387 266.486 167.825L318.895 199.415C319.572 199.732 320.378 199.482 320.757 198.837C321.136 198.192 320.962 197.364 320.355 196.927L320.343 196.978Z" fill="#F2F2F2"/>
<path d="M329.989 197.209L236.791 140.313C235.774 139.724 234.519 139.735 233.512 140.34C232.506 140.945 231.907 142.049 231.948 143.224V175.636C231.94 176.829 232.558 177.939 233.575 178.56L326.787 234.264C327.794 234.844 329.036 234.834 330.035 234.238C331.033 233.643 331.633 232.554 331.603 231.391L332.09 201.16C332.132 199.565 331.334 198.065 329.989 197.209V197.209Z" fill="#68E1FD"/>
<path d="M329.989 197.209L236.791 140.313C235.774 139.724 234.519 139.735 233.512 140.34C232.506 140.945 231.907 142.049 231.948 143.224V175.636C231.94 176.829 232.558 177.939 233.575 178.56L326.787 234.264C327.794 234.844 329.036 234.834 330.035 234.238C331.033 233.643 331.633 232.554 331.603 231.391L332.09 201.16C332.132 199.565 331.334 198.065 329.989 197.209V197.209Z" fill="#68E1FD"/>
<path d="M307.673 213.896C311.016 218.577 316.897 219.886 320.791 216.833C324.686 213.78 325.134 207.508 321.79 202.84C318.447 198.171 312.566 196.85 308.672 199.903C304.777 202.955 304.368 209.214 307.673 213.896Z" fill="white"/>
<path d="M298.526 191.425L260.491 168.504C259.814 168.187 259.007 168.438 258.629 169.083C258.25 169.728 258.424 170.555 259.03 170.993L297.053 193.913C297.729 194.23 298.536 193.98 298.915 193.335C299.293 192.69 299.119 191.862 298.513 191.425H298.526Z" fill="#F2F2F2"/>
<path d="M296.95 200.749L244.541 169.159C243.864 168.841 243.058 169.092 242.679 169.737C242.301 170.382 242.475 171.209 243.081 171.647L295.49 203.237C296.166 203.555 296.973 203.304 297.352 202.659C297.73 202.014 297.556 201.187 296.95 200.749V200.749Z" fill="#F2F2F2"/>
<path d="M207.672 194.028C201.649 199.218 197.094 205.902 194.464 213.409C189.826 226.235 201.42 247.192 201.42 247.192L219.458 232.891" fill="#FF8F6F"/>
<path d="M205.724 363.602L200.831 360.896L202.112 353.893C202.112 353.893 209.401 354.585 210.042 357.176" fill="#003B94"/>
<path d="M207.518 363.499C208.62 362.82 209.773 362.217 210.913 361.614C213.744 360.062 217.831 358.459 219.573 355.547C220.304 354.342 220.212 352.809 219.342 351.699C216.78 348.596 211.169 353.7 208.299 350.263C207.736 349.583 207.467 338.796 207.467 338.796L196.552 341.746C196.552 341.746 194.707 363.422 194.912 364.756C195.117 366.09 198.871 367.322 198.871 367.322C199.988 367.084 201.055 366.65 202.022 366.039C203.162 365.205 202.125 355.034 203.585 356.458C205.045 357.882 205.686 363.448 205.686 363.448C206.292 363.54 206.907 363.557 207.518 363.499Z" fill="#F47B56"/>
<path d="M226.568 374.081L221.674 371.413L222.955 364.41C222.955 364.41 230.244 365.103 230.885 367.694" fill="#003B94"/>
<path d="M228.412 373.978C229.514 373.299 230.667 372.696 231.807 372.093C234.638 370.541 238.725 368.938 240.467 366.026C241.198 364.821 241.106 363.288 240.237 362.178C237.674 359.074 232.063 364.179 229.194 360.742C228.63 360.062 228.361 349.275 228.361 349.275L217.446 352.225C217.446 352.225 215.589 373.978 215.794 375.261C215.999 376.544 219.752 377.826 219.752 377.826C220.87 377.588 221.937 377.154 222.904 376.544C224.044 375.71 223.006 365.539 224.467 366.962C225.927 368.386 226.568 373.953 226.568 373.953C227.179 374.037 227.799 374.046 228.412 373.978Z" fill="#F47B56"/>
<path d="M191.005 303.614L187.789 346.672C187.789 346.672 192.914 353.752 210.093 349.814V349.814L210.259 320.789" fill="#3E2928"/>
<path d="M210.849 312.144C210.477 315.851 210.849 356.74 210.849 356.74C210.849 356.74 215.601 365.641 236.291 356.74L235.996 321.994" fill="#3E2928"/>
<path d="M189.403 317.838C190.813 318.813 191.299 313.798 192.773 314.658C198.132 317.775 203.821 320.287 209.734 322.148H209.862C210.147 322.01 210.475 321.993 210.773 322.102C211.07 322.21 211.31 322.436 211.438 322.725C215.091 323.816 218.809 324.673 222.571 325.29C227.4 326.06 231.397 322.482 236.355 322.238C236.355 303.23 236.445 249.129 228.361 237.586L204.443 229.531C204.328 231.506 192.837 244.845 193.118 261.109C193.439 279.437 191.056 296.727 190.646 302.46C190.582 303.435 189.455 316.8 189.403 317.838Z" fill="#3E2928"/>
<path d="M230.565 215.73L228.361 237.534C228.361 237.534 210.516 238.253 202.829 232.943V214.447" fill="#FF8F6F"/>
<path d="M253.252 201.378L251.433 203.866C252.403 201.842 253.259 199.765 253.995 197.645C254.508 196.196 252.189 195.619 251.677 197.068L251.408 197.812C251.63 197.042 251.839 196.269 252.035 195.49C252.195 194.849 251.805 194.2 251.164 194.041C250.524 193.882 249.876 194.272 249.717 194.913C249.214 196.926 248.611 198.912 247.91 200.865C248.302 199.131 248.584 197.375 248.756 195.606C248.91 194.08 246.514 194.144 246.373 195.606C246.174 197.62 245.814 199.614 245.297 201.57C245.297 200.886 245.233 200.202 245.105 199.518C245.069 199.173 244.887 198.86 244.605 198.659C244.541 198.389 244.464 198.133 244.375 197.863C244.187 197.309 243.629 196.97 243.052 197.059C242.474 197.147 242.044 197.638 242.03 198.222L241.876 207.201C241.443 208.132 240.877 208.996 240.198 209.766C241.351 210.564 242.463 211.42 243.529 212.331C244.48 213.136 245.387 213.993 246.245 214.896C247.014 213.939 247.752 212.964 248.461 211.972C248.549 211.897 248.627 211.811 248.692 211.715C250.827 208.552 253.03 205.439 255.302 202.378C256.25 201.326 254.162 200.159 253.252 201.378Z" fill="#FFB5A9"/>
<path d="M219.24 195.85C219.24 195.85 227.669 198.12 231.09 203.545C233.232 207.3 235.119 211.196 236.739 215.204L242.965 205.52C242.965 205.52 250.524 207.842 253.521 211.562C253.521 211.562 244.554 231.185 236.739 232.866C228.925 234.546 220.623 221.348 220.623 221.348C220.623 221.348 218.907 226.863 219.24 220.976" fill="#FF8F6F"/>
<path d="M224.595 216.82C222.144 214.824 220.295 212.187 219.253 209.202C218.24 205.751 219.509 202.724 220.687 199.518C221.963 196.34 222.708 192.973 222.891 189.552C222.993 186.192 222.609 182.831 222.378 179.484C222.345 179.34 222.345 179.191 222.378 179.047C221.251 175.264 218.945 172.057 214.397 171.672C202.624 170.672 201.958 183.729 202.048 189.039C202.137 194.349 202.701 197.94 198.794 200.159C194.886 202.378 192.068 208.201 195.796 212.908C199.524 217.616 196.18 215.897 193.695 220.078C191.21 224.259 191.85 229.48 196.949 231.365C202.048 233.251 225.748 229.711 227.925 227.517C228.698 226.634 229.098 225.484 229.04 224.311C228.508 221.359 226.93 218.699 224.595 216.82V216.82Z" fill="#007F68"/>
<path fill-rule="evenodd" clip-rule="evenodd" d="M239.506 118.88C239.325 115.384 238.171 112.008 236.176 109.132C234.4 106.259 231.777 104.009 228.668 102.694C227.076 101.983 225.277 101.891 223.621 102.437C222.041 102.997 220.738 104.146 219.983 105.644C219.073 107.429 218.666 109.429 218.804 111.428C218.915 113.807 219.471 116.143 220.444 118.316C221.415 120.591 222.758 122.689 224.415 124.524C225.814 126.155 227.567 127.445 229.54 128.295C230.234 128.572 230.962 128.757 231.705 128.846C232.27 128.922 232.843 128.922 233.408 128.846C233.85 128.785 234.281 128.664 234.69 128.487C234.949 128.385 235.202 128.265 235.445 128.128L235.702 127.948L234.152 125.062L233.639 125.345C233.119 125.585 232.546 125.691 231.974 125.652C231.095 125.662 230.223 125.491 229.412 125.152C227.08 124.082 225.16 122.281 223.941 120.022C222.411 117.734 221.525 115.075 221.379 112.326C221.133 110.14 221.891 107.96 223.442 106.4C224.911 105.101 227.023 104.831 228.771 105.721C231.124 106.7 233.11 108.396 234.446 110.569C235.933 112.705 236.79 115.216 236.919 117.816C237.013 120.441 236.44 121.51 235.202 121.022C234.761 120.831 234.392 120.503 234.152 120.086C233.868 119.654 233.708 119.153 233.69 118.637L233.434 111.428L230.872 110.428V111.569L230.641 111.159C230.378 110.783 230.068 110.443 229.719 110.146C229.309 109.774 228.836 109.478 228.323 109.273C227.286 108.763 226.041 108.958 225.21 109.761C224.265 110.805 223.829 112.213 224.018 113.609C224.072 115.333 224.585 117.011 225.504 118.47C226.267 119.812 227.445 120.87 228.861 121.484C229.454 121.753 230.116 121.834 230.757 121.715C231.14 121.658 231.502 121.504 231.807 121.266C231.927 121.134 232.031 120.987 232.115 120.83L232.422 121.433C232.718 121.951 233.089 122.422 233.524 122.831C234.008 123.333 234.593 123.727 235.24 123.985C236.301 124.55 237.609 124.323 238.418 123.433C239.341 122.107 239.73 120.481 239.506 118.88ZM231.051 116.353C231.136 117.031 230.946 117.714 230.526 118.252C230.133 118.642 229.533 118.735 229.04 118.483C228.354 118.185 227.782 117.672 227.413 117.02C226.964 116.304 226.712 115.481 226.683 114.635C226.593 113.962 226.799 113.284 227.246 112.775C227.678 112.385 228.306 112.303 228.822 112.57C229.48 112.856 230.025 113.352 230.372 113.981C230.797 114.701 231.031 115.517 231.051 116.353Z" fill="#F47B56"/>
<path fill-rule="evenodd" clip-rule="evenodd" d="M390.764 257.761C390.586 254.264 389.432 250.887 387.433 248.013C385.721 245.108 383.152 242.805 380.079 241.421C378.482 240.715 376.68 240.623 375.019 241.164C373.44 241.732 372.138 242.884 371.381 244.383C370.471 246.164 370.063 248.16 370.202 250.155C370.312 252.534 370.869 254.87 371.842 257.043C372.813 259.322 374.155 261.424 375.813 263.263C377.214 264.89 378.966 266.176 380.938 267.022C381.628 267.303 382.351 267.492 383.09 267.586C383.66 267.661 384.237 267.661 384.807 267.586C385.246 267.517 385.676 267.397 386.088 267.227C386.348 267.124 386.6 267.004 386.844 266.868L387.1 266.688L385.55 263.802L385.037 264.084C384.515 264.32 383.944 264.426 383.372 264.392C382.492 264.392 381.622 264.217 380.81 263.879C378.482 262.861 376.542 261.121 375.275 258.915C373.743 256.629 372.857 253.97 372.713 251.22C372.441 249.029 373.182 246.833 374.725 245.256C376.198 243.964 378.308 243.7 380.054 244.589C382.4 245.568 384.38 247.259 385.716 249.424C387.202 251.565 388.059 254.08 388.189 256.684C388.266 259.313 387.74 260.378 386.459 259.89C386.018 259.699 385.65 259.371 385.409 258.954C385.129 258.52 384.97 258.02 384.948 257.505L384.691 250.296L382.129 249.309V250.45L381.886 250.04C381.622 249.661 381.312 249.316 380.963 249.014C380.554 248.641 380.081 248.346 379.567 248.142C378.534 247.633 377.294 247.828 376.467 248.629C375.515 249.669 375.078 251.08 375.275 252.477C375.329 254.207 375.847 255.89 376.774 257.351C377.535 258.698 378.713 259.761 380.131 260.378C380.72 260.647 381.379 260.723 382.014 260.596C382.398 260.542 382.76 260.387 383.064 260.147C383.182 260.013 383.285 259.867 383.372 259.711L383.679 260.313C383.978 260.83 384.349 261.301 384.781 261.712C385.268 262.211 385.852 262.604 386.498 262.866C387.559 263.426 388.864 263.2 389.675 262.314C390.598 260.988 390.987 259.362 390.764 257.761ZM382.321 255.234C382.402 255.914 382.208 256.597 381.783 257.133C381.387 257.519 380.788 257.607 380.297 257.351C379.61 257.048 379.039 256.531 378.67 255.876C378.221 255.163 377.969 254.345 377.94 253.503C377.851 252.828 378.061 252.148 378.517 251.643C378.951 251.257 379.578 251.181 380.092 251.451C380.748 251.736 381.289 252.233 381.63 252.862C382.061 253.58 382.299 254.397 382.321 255.234Z" fill="#F47B56"/>
<g style="mix-blend-mode:multiply" opacity="0.25">
<path d="M132.139 302.704L88.7744 278.001L45.4226 302.755C45.4226 302.755 69.5454 317.839 91.1316 330.511C104.839 320.814 117.022 309.72 132.139 302.704Z" fill="url(#paint4_linear_506_2)"/>
</g>
</g>
<g filter="url(#filter0_d_506_2)">
<path fill-rule="evenodd" clip-rule="evenodd" d="M50.9305 233.886V287.755L92.8987 311.791L140.286 283.766V229.897" fill="#FF9271"/>
</g>
<path d="M92.8987 257.922V311.791L140.286 283.766V229.897L92.8987 257.922V257.922Z" fill="#DF5C34"/>
<path d="M50.9305 233.886L99.6244 206.13L140.286 229.897L92.8987 257.922L50.9305 233.886V233.886Z" fill="#F47B56"/>
<path fill-rule="evenodd" clip-rule="evenodd" d="M108.22 221.624C103.879 219.247 98.9501 218.161 94.0132 218.494C88.8335 218.586 83.7728 220.065 79.3577 222.778C77.0421 224.097 75.1999 226.112 74.0924 228.537C73.1692 230.637 73.1692 233.029 74.0924 235.13C75.2104 237.512 77.0719 239.466 79.3961 240.696C82.2759 242.324 85.4507 243.362 88.7352 243.749C92.3487 244.249 96.0179 244.184 99.6116 243.557C102.909 243.055 106.077 241.913 108.938 240.196C109.931 239.589 110.854 238.875 111.692 238.067C112.328 237.464 112.895 236.793 113.383 236.066C113.721 235.527 113.997 234.95 114.203 234.347C114.346 233.972 114.462 233.586 114.549 233.193C114.557 233.048 114.557 232.902 114.549 232.757L109.796 232.488L109.617 233.296C109.359 234.11 108.921 234.855 108.336 235.476C107.461 236.492 106.427 237.358 105.274 238.041C101.942 240.017 98.1285 241.029 94.2566 240.966C90.3677 241.13 86.5095 240.211 83.1112 238.311C79.9982 236.477 78.3969 234.193 78.3969 231.628C78.3712 229.012 79.8701 226.759 82.8935 224.869C86.2157 222.843 90.021 221.749 93.9108 221.701C97.581 221.459 101.244 222.274 104.467 224.048C107.499 225.844 108.131 227.293 106.363 228.396C105.067 229.094 103.508 229.094 102.212 228.396L93.8723 223.484L90.2725 225.728L91.5536 226.498H90.849C90.1591 226.536 89.4759 226.652 88.812 226.844C87.9796 227.06 87.1848 227.402 86.4549 227.857C84.9035 228.594 83.9086 230.153 83.8927 231.872C83.9696 233.462 84.9944 234.848 86.9929 236.028C89.1063 237.242 91.5132 237.85 93.9492 237.785C96.3036 237.831 98.6241 237.218 100.649 236.015C101.518 235.522 102.243 234.81 102.75 233.95C103.055 233.487 103.232 232.951 103.263 232.398C103.234 232.164 103.174 231.935 103.083 231.718L104.057 231.795C104.949 231.821 105.84 231.731 106.709 231.526C107.766 231.312 108.776 230.913 109.694 230.346C111.628 229.178 112.448 227.793 112.256 226.203C112.064 224.612 110.706 223.086 108.22 221.624ZM97.075 229.756C97.9063 230.117 98.5056 230.866 98.6764 231.757H98.7276C98.7408 232.576 98.2682 233.326 97.5234 233.668C96.5394 234.249 95.4119 234.543 94.2695 234.514C93.0809 234.542 91.9073 234.245 90.8746 233.655C90.0535 233.295 89.4803 232.531 89.3629 231.641C89.3822 230.787 89.8766 230.015 90.644 229.64C91.5787 229.08 92.6557 228.804 93.7442 228.845C94.9156 228.847 96.0654 229.161 97.075 229.756Z" fill="#3E2928"/>
<defs>
<filter id="filter0_d_506_2" x="0.930481" y="204.897" width="189.355" height="181.895" filterUnits="userSpaceOnUse" color-interpolation-filters="sRGB">
<feFlood flood-opacity="0" result="BackgroundImageFix"/>
<feColorMatrix in="SourceAlpha" type="matrix" values="0 0 0 0 0 0 0 0 0 0 0 0 0 0 0 0 0 0 127 0" result="hardAlpha"/>
<feOffset dy="25"/>
<feGaussianBlur stdDeviation="25"/>
<feColorMatrix type="matrix" values="0 0 0 0 0.209139 0 0 0 0 0.0691446 0 0 0 0 0.478091 0 0 0 0.497159 0"/>
<feBlend mode="normal" in2="BackgroundImageFix" result="effect1_dropShadow_506_2"/>
<feBlend mode="normal" in="SourceGraphic" in2="effect1_dropShadow_506_2" result="shape"/>
</filter>
<linearGradient id="paint0_linear_506_2" x1="258.715" y1="255.543" x2="247.685" y2="288.24" gradientUnits="userSpaceOnUse">
<stop stop-color="#78B46A"/>
<stop offset="0.03" stop-color="#7F3500"/>
<stop offset="1" stop-color="white"/>
</linearGradient>
<linearGradient id="paint1_linear_506_2" x1="186.536" y1="322.477" x2="167.981" y2="380.838" gradientUnits="userSpaceOnUse">
<stop stop-color="#78B46A"/>
<stop offset="0.03" stop-color="#7F3500"/>
<stop offset="1" stop-color="white"/>
</linearGradient>
<linearGradient id="paint2_linear_506_2" x1="140.7" y1="200.002" x2="123.536" y2="239.625" gradientUnits="userSpaceOnUse">
<stop stop-color="#78B46A"/>
<stop offset="0.03" stop-color="#7F3500"/>
<stop offset="1" stop-color="white"/>
</linearGradient>
<linearGradient id="paint3_linear_506_2" x1="381.656" y1="235.452" x2="374.951" y2="218.459" gradientUnits="userSpaceOnUse">
<stop stop-color="white" stop-opacity="0.01"/>
<stop offset="0.99" stop-color="#DC841E"/>
</linearGradient>
<linearGradient id="paint4_linear_506_2" x1="75.555" y1="258.35" x2="56.0329" y2="316.801" gradientUnits="userSpaceOnUse">
<stop stop-color="#78B46A"/>
<stop offset="0.03" stop-color="#7F3500"/>
<stop offset="1" stop-color="white"/>
</linearGradient>
</defs>
</svg>
